<svg xmlns="http://www.w3.org/2000/svg" width="160" height="160" viewBox="0 0 160 160"><defs><style>.cls-1{fill:#06b6d4;}.cls-2{fill:#fff;}</style></defs><title>DEMO_AmGovt_Federalism_R1 (1)</title><g id="graph"><circle class="cls-1" cx="79.44" cy="78.8" r="62.44"/><path class="cls-2" d="M33.91,99.38v10.46a2.58,2.58,0,0,0,2.58,2.58h5.9A2.59,2.59,0,0,0,45,109.84V99.38Z"/><path class="cls-2" d="M113.91,99.39v10.45a2.59,2.59,0,0,0,2.58,2.58h5.9a2.58,2.58,0,0,0,2.58-2.58V99.39Z"/><path class="cls-2" d="M46.5,74a4.74,4.74,0,1,0,4.74,4.73A4.74,4.74,0,0,0,46.5,74Zm65.88,0a4.74,4.74,0,1,0,4.74,4.73A4.74,4.74,0,0,0,112.38,74ZM125,73.25v27.33H33.85V73.25c0-3.62,3.42-8.32,7.06-9.67-1.8-1.16-3.35-2.19-3.54-2.32A2.93,2.93,0,0,1,39,55.9h6.12l4.6-19.77,1.7-.45a117.08,117.08,0,0,1,56,0l1.7.45,4.61,19.77h6.12a2.93,2.93,0,0,1,1.63,5.36c-.19.13-1.74,1.16-3.54,2.32C121.62,64.93,125,69.63,125,73.25Zm-74.43-15c7.64-1,18.32-1.25,28.84-1.25s21.2.27,28.85,1.25c-1.63-7-3.62-15.53-4-17.31a118.16,118.16,0,0,0-24.81-2.79,118.16,118.16,0,0,0-24.81,2.79C54.21,42.71,52.23,51.24,50.6,58.24Z"/></g></svg>