<svg xmlns="http://www.w3.org/2000/svg" width="160" height="160" viewBox="0 0 160 160"><defs><style>.cls-1{fill:#fff;stroke:#d17905;stroke-miterlimit:10;stroke-width:5px;}.cls-2{fill:#d17905;}</style></defs><title>icon</title><g id="income_security"><circle class="cls-1" cx="80" cy="78.54" r="63.45"/><path class="cls-2" d="M110.76,94.84a19.2,19.2,0,0,1-7,15.49q-7,5.85-19.52,7v12.43H76V117.58q-14.79-.31-25.95-5.22v-16A70.28,70.28,0,0,0,62.72,101,68,68,0,0,0,76,103.33V84.54L71.91,83q-12-4.72-17-10.27A19.78,19.78,0,0,1,49.9,59,17.94,17.94,0,0,1,56.78,44.5Q63.66,38.83,76,37.62V28.35h8.3v9A68.63,68.63,0,0,1,109.37,43l-5.7,14.18a65.51,65.51,0,0,0-19.4-4.73V70.29q11.82,4.54,16.83,7.88a23.13,23.13,0,0,1,7.33,7.34A18.25,18.25,0,0,1,110.76,94.84ZM68.15,59A5.75,5.75,0,0,0,70,63.35a21.85,21.85,0,0,0,6,3.55V52.65Q68.16,53.81,68.15,59ZM92.52,95.75a5.46,5.46,0,0,0-2.06-4.3,27.53,27.53,0,0,0-6.19-3.64v15.1Q92.52,101.52,92.52,95.75Z"/></g></svg>